<svg xmlns="http://www.w3.org/2000/svg" xmlns:xlink="http://www.w3.org/1999/xlink"><symbol id="sprite-arrow-left-regular" viewBox="0 0 448 512"><path d="M7.4 273.4C2.7 268.8 0 262.6 0 256s2.7-12.8 7.4-17.4l176-168c9.6-9.2 24.8-8.8 33.9.8s8.8 24.8-.8 33.9L83.9 232H424c13.3 0 24 10.7 24 24s-10.7 24-24 24H83.9l132.7 126.6c9.6 9.2 9.9 24.3.8 33.9s-24.3 9.9-33.9.8l-176-168z"/></symbol><use xlink:href="#sprite-arrow-left-regular" width="448" height="512" y="0"/><view id="sprite-arrow-left-regular-view" viewBox="0 0 448 512"/><symbol id="sprite-caret-down-solid" viewBox="0 0 320 512"><path d="M320 240 160 384 0 240v-48h320z"/></symbol><use xlink:href="#sprite-caret-down-solid" width="320" height="512" y="512"/><view id="sprite-caret-down-solid-view" viewBox="0 512 320 512"/><symbol id="sprite-face-awesome-regular" viewBox="0 0 512 512"><path d="M464 256a208 208 0 1 0-416 0 208 208 0 1 0 416 0M0 256a256 256 0 1 1 512 0 256 256 0 1 1-512 0m192-32v-24c0-2-.1-3.9-.4-5.8-4.2 3.6-9.6 5.8-15.6 5.8-13.3 0-24-10.7-24-24 0-6 2.2-11.4 5.8-15.6-1.9-.3-3.8-.4-5.8-.4-22.1 0-40 17.9-40 40v24zm-40-96c39.8 0 72 32.2 72 72v24c0 17.7-14.3 32-32 32h-80c-17.7 0-32-14.3-32-32v-24c0-39.8 32.2-72 72-72m216 72c-13.3 0-24-10.7-24-24 0-5.4 1.8-10.3 4.7-14.3-4.1-1.1-8.3-1.7-12.7-1.7-26.5 0-48 21.5-48 48v16h96v-16c0-4.4-.6-8.7-1.7-12.7-4 3-8.9 4.7-14.3 4.7m-32-72c44.2 0 80 35.8 80 80v17.9c0 16.6-13.5 30.1-30.1 30.1h-99.8c-16.6 0-30.1-13.5-30.1-30.1V208c0-44.2 35.8-80 80-80M100.4 307.8c-2.3-10.2 5.5-19.8 15.9-19.8h279.4c10.4 0 18.1 9.6 15.9 19.8-3.9 17.4-10.6 33.6-19.5 48.2-28.2 45.9-78.9 75.6-134.9 76h-1.1c-4.6 0-9.3-.2-13.8-.6-68.5-5.9-126.7-55.6-141.8-123.6zm263.8 32.4c-8.2-2.7-16.9-4.2-25.9-4.2-39.2 0-71.9 27.3-80.2 64 44.1-.7 83.8-24.1 106.2-59.8z"/></symbol><use xlink:href="#sprite-face-awesome-regular" width="512" height="512" y="1024"/><view id="sprite-face-awesome-regular-view" viewBox="0 1024 512 512"/><symbol id="sprite-xmark-regular" viewBox="0 0 384 512"><path d="M345 137c9.4-9.4 9.4-24.6 0-33.9s-24.6-9.4-33.9 0l-119 119L73 103c-9.4-9.4-24.6-9.4-33.9 0s-9.4 24.6 0 33.9l119 119L39 375c-9.4 9.4-9.4 24.6 0 33.9s24.6 9.4 33.9 0l119-119L311 409c9.4 9.4 24.6 9.4 33.9 0s9.4-24.6 0-33.9l-119-119z"/></symbol><use xlink:href="#sprite-xmark-regular" width="384" height="512" y="1536"/><view id="sprite-xmark-regular-view" viewBox="0 1536 384 512"/></svg>